<svg xmlns:xlink="http://www.w3.org/1999/xlink" xmlns="http://www.w3.org/2000/svg" viewBox="0 0 369.77777777777777 85.67642658602368" preserveAspectRatio="xMidYMid meet" class="css-h0p1cn" id="hdefadaa" width="369.77777777777777"  height="85.67642658602368" ><defs id="SvgjsDefs6736"><linearGradient id="SvgjsLinearGradient6743"><stop id="SvgjsStop6744" stop-color="#7f00ff" offset="0"></stop><stop id="SvgjsStop6745" stop-color="#e100ff" offset="1"></stop></linearGradient><linearGradient id="SvgjsLinearGradient6746"><stop id="SvgjsStop6747" stop-color="#7f00ff" offset="0"></stop><stop id="SvgjsStop6748" stop-color="#e100ff" offset="1"></stop></linearGradient><linearGradient id="SvgjsLinearGradient6749"><stop id="SvgjsStop6750" stop-color="#7f00ff" offset="0"></stop><stop id="SvgjsStop6751" stop-color="#e100ff" offset="1"></stop></linearGradient><linearGradient id="SvgjsLinearGradient6743"><stop id="SvgjsStop6744" stop-color="#7f00ff" offset="0"></stop><stop id="SvgjsStop6745" stop-color="#e100ff" offset="1"></stop></linearGradient><linearGradient id="SvgjsLinearGradient6743"><stop id="SvgjsStop6744" stop-color="#7f00ff" offset="0"></stop><stop id="SvgjsStop6745" stop-color="#e100ff" offset="1"></stop></linearGradient><linearGradient id="SvgjsLinearGradient6743"><stop id="SvgjsStop6744" stop-color="#7f00ff" offset="0"></stop><stop id="SvgjsStop6745" stop-color="#e100ff" offset="1"></stop></linearGradient><linearGradient id="SvgjsLinearGradient6743"><stop id="SvgjsStop6744" stop-color="#7f00ff" offset="0"></stop><stop id="SvgjsStop6745" stop-color="#e100ff" offset="1"></stop></linearGradient><linearGradient id="SvgjsLinearGradient6743"><stop id="SvgjsStop6744" stop-color="#7f00ff" offset="0"></stop><stop id="SvgjsStop6745" stop-color="#e100ff" offset="1"></stop></linearGradient><linearGradient id="SvgjsLinearGradient6743"><stop id="SvgjsStop6744" stop-color="#7f00ff" offset="0"></stop><stop id="SvgjsStop6745" stop-color="#e100ff" offset="1"></stop></linearGradient><linearGradient id="SvgjsLinearGradient6743"><stop id="SvgjsStop6744" stop-color="#7f00ff" offset="0"></stop><stop id="SvgjsStop6745" stop-color="#e100ff" offset="1"></stop></linearGradient><linearGradient id="SvgjsLinearGradient6743"><stop id="SvgjsStop6744" stop-color="#7f00ff" offset="0"></stop><stop id="SvgjsStop6745" stop-color="#e100ff" offset="1"></stop></linearGradient><linearGradient id="SvgjsLinearGradient6743"><stop id="SvgjsStop6744" stop-color="#7f00ff" offset="0"></stop><stop id="SvgjsStop6745" stop-color="#e100ff" offset="1"></stop></linearGradient><linearGradient id="SvgjsLinearGradient6743"><stop id="SvgjsStop6744" stop-color="#7f00ff" offset="0"></stop><stop id="SvgjsStop6745" stop-color="#e100ff" offset="1"></stop></linearGradient><linearGradient id="SvgjsLinearGradient6743"><stop id="SvgjsStop6744" stop-color="#7f00ff" offset="0"></stop><stop id="SvgjsStop6745" stop-color="#e100ff" offset="1"></stop></linearGradient><linearGradient id="SvgjsLinearGradient6743"><stop id="SvgjsStop6744" stop-color="#7f00ff" offset="0"></stop><stop id="SvgjsStop6745" stop-color="#e100ff" offset="1"></stop></linearGradient><linearGradient id="SvgjsLinearGradient6743"><stop id="SvgjsStop6744" stop-color="#7f00ff" offset="0"></stop><stop id="SvgjsStop6745" stop-color="#e100ff" offset="1"></stop></linearGradient><linearGradient id="SvgjsLinearGradient6743"><stop id="SvgjsStop6744" stop-color="#7f00ff" offset="0"></stop><stop id="SvgjsStop6745" stop-color="#e100ff" offset="1"></stop></linearGradient><linearGradient id="SvgjsLinearGradient6743"><stop id="SvgjsStop6744" stop-color="#7f00ff" offset="0"></stop><stop id="SvgjsStop6745" stop-color="#e100ff" offset="1"></stop></linearGradient><linearGradient id="SvgjsLinearGradient6746"><stop id="SvgjsStop6747" stop-color="#7f00ff" offset="0"></stop><stop id="SvgjsStop6748" stop-color="#e100ff" offset="1"></stop></linearGradient><linearGradient id="SvgjsLinearGradient6746"><stop id="SvgjsStop6747" stop-color="#7f00ff" offset="0"></stop><stop id="SvgjsStop6748" stop-color="#e100ff" offset="1"></stop></linearGradient><linearGradient id="SvgjsLinearGradient6749"><stop id="SvgjsStop6750" stop-color="#7f00ff" offset="0"></stop><stop id="SvgjsStop6751" stop-color="#e100ff" offset="1"></stop></linearGradient><linearGradient id="SvgjsLinearGradient6749"><stop id="SvgjsStop6750" stop-color="#7f00ff" offset="0"></stop><stop id="SvgjsStop6751" stop-color="#e100ff" offset="1"></stop></linearGradient></defs><g id="SvgjsG6737" featurekey="symbolFeature-0" transform="matrix(1.0314617205396235,0,0,1.0314617205396235,-15.461407333345997,-8.735263254354177)" fill="url(&quot;#SvgjsLinearGradient6743&quot;)"><path xmlns="http://www.w3.org/2000/svg" d="M52.21,26.36c0.023-1.404,0.089-3,0.072-4.596c0-0.043-0.001-0.087,0.003-0.13c0.02-0.214,0.051-0.251,0.268-0.213  c0.269,0.047,0.538,0.074,0.81,0.061c0.618-0.031,1.177-0.225,1.621-0.664c0.328-0.324,0.544-0.732,0.731-1.149  c0.285-0.634,0.558-1.273,0.832-1.912c0.401-0.935,0.909-1.806,1.608-2.55c0.542-0.576,1.18-1.026,1.929-1.298  c0.445-0.162,0.9-0.108,1.349-0.011c0.876,0.189,1.7,0.528,2.509,0.902c1.874,0.866,3.682,1.865,5.535,2.771  c1.592,0.779,3.21,1.493,4.901,2.031c1.173,0.373,2.369,0.663,3.595,0.75c1.425,0.102,2.845,0.043,4.212-0.456  c0.603-0.22,1.216-0.399,1.858-0.474c0.235-0.028,0.456-0.003,0.673,0.07c0.214,0.072,0.29,0.191,0.293,0.417  c0.003,0.201-0.064,0.384-0.148,0.562c-0.23,0.488-0.561,0.908-0.947,1.275c-0.771,0.734-1.649,1.307-2.661,1.661  c-0.598,0.21-1.21,0.343-1.845,0.365c-0.314,0.011-0.349,0.04-0.296,0.341c0.054,0.308-0.082,0.503-0.33,0.642  c-0.368,0.206-0.776,0.272-1.187,0.318c-1.129,0.128-2.229-0.031-3.312-0.344c-0.052-0.015-0.105-0.028-0.157-0.043  c-0.132-0.036-0.213,0.013-0.234,0.147c-0.015,0.096-0.021,0.194-0.032,0.291c-0.113,1.01-0.62,1.481-1.477,1.65  c-0.605,0.119-1.189,0.013-1.775-0.104c-0.234-0.047-0.463-0.117-0.693-0.182c-0.394-0.112-0.393-0.114-0.567,0.242  c-0.119,0.244-0.239,0.487-0.408,0.703c-0.414,0.529-0.957,0.797-1.623,0.84c-0.661,0.042-1.297-0.081-1.924-0.275  c-0.249-0.077-0.498-0.155-0.749-0.224c-0.324-0.09-0.324-0.086-0.48,0.203c-0.052,0.095-0.105,0.19-0.164,0.281  c-0.418,0.642-1.042,0.863-1.768,0.824c-0.898-0.048-1.708-0.387-2.486-0.815c-0.076-0.042-0.15-0.088-0.227-0.129  c-0.452-0.245-0.457-0.247-0.845,0.107c-0.209,0.19-0.405,0.394-0.613,0.585c-0.597,0.546-1.314,0.687-2.092,0.596  c-1.216-0.142-2.37-0.531-3.527-0.907c-0.194-0.063-0.237-0.192-0.235-0.373C52.213,27.616,52.21,27.084,52.21,26.36z" fill="url(&quot;#SvgjsLinearGradient6743&quot;)"></path><path xmlns="http://www.w3.org/2000/svg" d="M47.785,27.122c0,0.427-0.005,0.742,0.002,1.057c0.004,0.177-0.068,0.28-0.238,0.339c-1.152,0.394-2.31,0.764-3.525,0.913  c-0.859,0.105-1.615-0.108-2.234-0.737c-0.168-0.17-0.339-0.337-0.514-0.5c-0.303-0.281-0.359-0.296-0.712-0.094  c-0.463,0.265-0.938,0.5-1.437,0.69c-0.461,0.176-0.939,0.292-1.428,0.302c-0.799,0.016-1.433-0.296-1.82-1.032  c-0.198-0.377-0.202-0.375-0.622-0.253c-0.365,0.106-0.729,0.215-1.095,0.316c-0.41,0.113-0.829,0.154-1.256,0.159  c-0.971,0.011-1.654-0.436-2.111-1.269c-0.063-0.114-0.116-0.233-0.172-0.351c-0.133-0.282-0.132-0.282-0.444-0.198  c-0.262,0.071-0.521,0.155-0.787,0.209c-0.564,0.114-1.127,0.222-1.71,0.113c-0.963-0.179-1.464-0.72-1.542-1.698  c-0.037-0.467-0.041-0.474-0.476-0.338c-0.784,0.244-1.592,0.348-2.406,0.375c-0.573,0.019-1.151-0.031-1.702-0.224  c-0.122-0.043-0.245-0.092-0.357-0.157c-0.235-0.138-0.357-0.326-0.3-0.622c0.057-0.298,0.011-0.333-0.299-0.348  c-1.569-0.075-2.92-0.686-4.117-1.677c-0.455-0.377-0.853-0.804-1.167-1.305c-0.139-0.222-0.26-0.454-0.308-0.714  c-0.067-0.361,0.048-0.52,0.397-0.623c0.341-0.099,0.67-0.014,0.999,0.038c0.419,0.066,0.824,0.195,1.223,0.339  c1.063,0.385,2.158,0.548,3.289,0.556c1.595,0.012,3.129-0.298,4.64-0.765c1.571-0.485,3.082-1.122,4.553-1.852  c1.605-0.796,3.194-1.626,4.8-2.421c0.963-0.477,1.93-0.95,2.962-1.268c0.427-0.132,0.86-0.233,1.304-0.274  c0.449-0.041,0.856,0.112,1.245,0.318c1.038,0.55,1.803,1.376,2.399,2.375c0.508,0.853,0.871,1.772,1.259,2.681  c0.179,0.42,0.377,0.83,0.618,1.22c0.439,0.709,1.106,1.014,1.906,1.076c0.237,0.018,0.476,0.007,0.714-0.036  c0.288-0.052,0.339-0.009,0.379,0.288c0.019,0.139,0.021,0.281,0.022,0.422c0.006,1.119,0.011,2.238,0.015,3.357  C47.732,26.085,47.822,26.657,47.785,27.122z" fill="url(&quot;#SvgjsLinearGradient6743&quot;)"></path><path xmlns="http://www.w3.org/2000/svg" d="M42.256,32.892c0.439-0.033,0.914,0.022,1.389,0.07c0.262,0.027,0.511,0.115,0.734,0.254  c0.762,0.474,1.374,1.093,1.785,1.898c0.015,0.029,0.029,0.059,0.042,0.088c0.272,0.601,0.195,0.831-0.386,1.125  c-0.938,0.475-1.94,0.609-2.976,0.534c-0.26-0.019-0.51-0.104-0.745-0.225c-0.406-0.208-0.819-0.403-1.221-0.619  c-0.654-0.351-1.359-0.507-2.09-0.572c-0.769-0.068-1.539-0.08-2.31-0.073c-0.252,0.002-0.499,0.037-0.741,0.098  c-0.875,0.22-1.244,1.094-0.802,1.889c0.15,0.27,0.359,0.489,0.601,0.678c0.786,0.618,1.677,1.042,2.6,1.403  c1.823,0.711,3.718,1.122,5.657,1.344c0.949,0.108,1.9,0.171,2.856,0.196c1.801,0.047,3.6,0.132,5.372,0.506  c1.877,0.396,3.716,0.901,5.422,1.807c0.991,0.526,1.866,1.192,2.511,2.127c0.554,0.803,0.86,1.685,0.786,2.665  c-0.061,0.806-0.36,1.541-0.793,2.219c-0.679,1.061-1.599,1.882-2.615,2.604c-0.942,0.669-1.956,1.212-2.995,1.712  c-0.196,0.095-0.353,0.096-0.543-0.024c-0.515-0.325-1.059-0.598-1.621-0.832c-0.117-0.049-0.263-0.083-0.279-0.242  c-0.018-0.182-0.046-0.371,0.031-0.546c0.048-0.107,0.17-0.127,0.27-0.168c0.692-0.287,1.39-0.561,2.062-0.894  c0.656-0.325,1.273-0.714,1.801-1.221c0.621-0.596,1.067-1.299,1.036-2.202c-0.026-0.752-0.375-1.375-0.88-1.912  c-0.667-0.711-1.496-1.185-2.385-1.553c-0.937-0.388-1.908-0.66-2.92-0.768c-0.324-0.035-0.65-0.046-0.974-0.065  c-1.235-0.073-2.466-0.186-3.698-0.285c-1.636-0.131-3.26-0.341-4.85-0.766c-1.911-0.51-3.731-1.234-5.418-2.275  c-1.052-0.649-2.01-1.412-2.771-2.394c-0.395-0.51-0.703-1.067-0.817-1.719c-0.115-0.662,0.076-1.222,0.508-1.715  c0.29-0.331,0.64-0.585,1.03-0.787c0.84-0.433,1.742-0.669,2.664-0.834c0.855-0.153,1.72-0.226,2.587-0.276  c0.411-0.023,0.82-0.089,1.229-0.14C41.001,32.929,41.606,32.87,42.256,32.892z" fill="url(&quot;#SvgjsLinearGradient6743&quot;)"></path><path xmlns="http://www.w3.org/2000/svg" d="M48.624,37.756c0-0.38,0.012-0.761-0.002-1.141c-0.067-1.878-0.024-3.758-0.079-5.635c-0.044-1.488-0.002-2.976-0.06-4.462  c-0.06-1.531-0.007-3.063-0.068-4.593c-0.055-1.379-0.007-2.759-0.063-4.136c-0.041-1.021-0.045-2.041-0.052-3.061  c-0.001-0.181-0.066-0.303-0.212-0.409c-0.813-0.594-1.246-1.408-1.328-2.401c-0.057-0.679,0.114-1.317,0.475-1.896  c0.623-0.999,1.547-1.541,2.706-1.553c1.969-0.02,3.249,1.613,3.273,3.096c0.019,1.134-0.413,2.024-1.281,2.717  c-0.173,0.138-0.238,0.285-0.241,0.497c-0.029,1.629-0.039,3.258-0.075,4.886c-0.036,1.585-0.007,3.172-0.066,4.755  c-0.055,1.466-0.002,2.933-0.061,4.397c-0.066,1.618-0.005,3.237-0.068,4.853c-0.06,1.553-0.017,3.106-0.061,4.658  c-0.018,0.651-0.043,1.302-0.052,1.953c-0.004,0.279-0.068,0.34-0.332,0.295c-0.664-0.113-1.335-0.161-2.003-0.239  c-0.296-0.034-0.33-0.061-0.332-0.366c-0.006-0.739-0.002-1.477-0.002-2.216C48.634,37.756,48.629,37.756,48.624,37.756z" fill="url(&quot;#SvgjsLinearGradient6743&quot;)"></path><path xmlns="http://www.w3.org/2000/svg" d="M46.28,44.651c-0.081,0.143-0.201,0.143-0.296,0.178c-0.876,0.327-1.684,0.766-2.312,1.474  c-0.696,0.786-1.032,1.69-0.735,2.737c0.22,0.775,0.701,1.389,1.318,1.898c0.754,0.621,1.611,1.058,2.505,1.438  c1.72,0.73,3.47,1.383,5.202,2.084c1.233,0.499,2.325,1.225,3.245,2.189c0.755,0.79,1.326,1.695,1.517,2.794  c0.19,1.094,0.011,2.14-0.446,3.144c-0.601,1.322-1.522,2.392-2.611,3.332c-0.272,0.234-0.561,0.446-0.844,0.665  c-0.14,0.109-0.259,0.119-0.407,0.003c-0.153-0.12-0.325-0.218-0.493-0.316c-0.156-0.091-0.235-0.212-0.229-0.397  c0.009-0.293,0.012-0.587,0.004-0.88c-0.006-0.217,0.088-0.362,0.256-0.494c0.688-0.539,1.295-1.159,1.787-1.882  c0.428-0.63,0.716-1.308,0.698-2.096c-0.019-0.812-0.382-1.461-0.913-2.031c-0.776-0.833-1.745-1.389-2.765-1.863  c-1.134-0.528-2.332-0.892-3.497-1.342c-1.759-0.68-3.444-1.504-4.957-2.645c-0.926-0.698-1.742-1.502-2.348-2.503  c-0.418-0.692-0.673-1.439-0.701-2.246c-0.025-0.72,0.172-1.401,0.519-2.029c0.394-0.711,0.933-1.304,1.571-1.808  c0.138-0.109,0.274-0.11,0.427-0.073c0.707,0.171,1.423,0.304,2.143,0.405c0.526,0.074,1.053,0.139,1.584,0.174  C45.756,44.578,46.007,44.619,46.28,44.651z" fill="url(&quot;#SvgjsLinearGradient6743&quot;)"></path><path xmlns="http://www.w3.org/2000/svg" d="M53.506,40.983c0.353-0.014,0.706-0.047,1.058-0.065c1.172-0.061,2.334-0.203,3.488-0.41  c1.513-0.272,2.982-0.692,4.393-1.304c0.719-0.312,1.409-0.678,2.028-1.166c0.215-0.17,0.401-0.365,0.549-0.596  c0.218-0.338,0.269-0.701,0.184-1.092c-0.089-0.41-0.334-0.673-0.723-0.809c-0.278-0.097-0.565-0.155-0.861-0.162  c-0.989-0.022-1.976,0.008-2.957,0.137c-0.61,0.081-1.175,0.303-1.717,0.587c-0.337,0.176-0.676,0.348-1.014,0.521  c-0.335,0.171-0.689,0.25-1.066,0.258c-0.938,0.02-1.839-0.124-2.683-0.552c-0.576-0.292-0.663-0.509-0.397-1.094  c0.404-0.889,1.063-1.552,1.894-2.048c0.436-0.261,0.937-0.263,1.422-0.289c1.164-0.062,2.318,0.067,3.471,0.221  c0.397,0.053,0.8,0.065,1.199,0.098c1.358,0.112,2.693,0.33,3.958,0.869c0.474,0.202,0.903,0.473,1.27,0.838  c0.674,0.67,0.817,1.454,0.499,2.335c-0.221,0.613-0.582,1.138-1.018,1.616c-0.963,1.056-2.117,1.86-3.371,2.529  c-1.338,0.714-2.741,1.259-4.201,1.664c-0.174,0.048-0.33,0.064-0.497-0.04c-1.35-0.841-2.827-1.375-4.351-1.797  c-0.187-0.052-0.372-0.108-0.558-0.162C53.506,41.039,53.506,41.011,53.506,40.983z" fill="url(&quot;#SvgjsLinearGradient6743&quot;)"></path><path xmlns="http://www.w3.org/2000/svg" d="M51.568,75.274c0.001-0.228,0.019-0.455,0.034-0.683c0.014-0.214,0.105-0.365,0.254-0.505  c0.269-0.253,0.516-0.525,0.725-0.834c0.443-0.655,0.473-1.333,0.148-2.039c-0.178-0.388-0.424-0.735-0.705-1.052  c-0.777-0.876-1.686-1.594-2.668-2.226c-0.803-0.517-1.659-0.95-2.419-1.535c-1.094-0.841-2.058-1.801-2.776-2.99  c-0.582-0.965-0.953-1.994-0.949-3.139c0.003-0.916,0.263-1.755,0.737-2.531c0.488-0.799,1.137-1.448,1.88-2.01  c0.144-0.109,0.27-0.142,0.447-0.068c0.521,0.216,1.05,0.414,1.577,0.618c0.292,0.113,0.293,0.141,0.325,0.449  c0.038,0.363-0.108,0.575-0.418,0.759c-0.591,0.352-1.105,0.803-1.519,1.36c-0.714,0.96-0.801,1.988-0.332,3.075  c0.222,0.514,0.537,0.97,0.912,1.381c0.676,0.74,1.423,1.4,2.238,1.985c0.831,0.595,1.7,1.129,2.573,1.659  c1.041,0.632,1.959,1.403,2.64,2.428c0.442,0.666,0.703,1.402,0.73,2.199c0.018,0.533-0.099,1.057-0.289,1.56  c-0.189,0.502-0.462,0.956-0.778,1.387c-0.472,0.643-1.034,1.199-1.651,1.7c-0.227,0.184-0.241,0.167-0.465-0.024  c-0.191-0.162-0.279-0.351-0.254-0.6C51.577,75.492,51.568,75.383,51.568,75.274z" fill="url(&quot;#SvgjsLinearGradient6743&quot;)"></path><path xmlns="http://www.w3.org/2000/svg" d="M51.511,85.808c-0.083-0.091-0.072-0.181-0.063-0.265c0.084-0.791,0.033-1.584,0.043-2.376  c0.008-0.597,0.104-1.188,0.073-1.787c-0.075-1.421-0.614-2.605-1.743-3.497c-0.715-0.565-1.445-1.114-2.145-1.697  c-0.898-0.748-1.701-1.588-2.213-2.658c-0.549-1.148-0.607-2.317-0.086-3.494c0.415-0.937,1.095-1.66,1.878-2.298  c0.107-0.087,0.21-0.105,0.325-0.025c0.009,0.006,0.019,0.011,0.028,0.017c0.824,0.506,0.654,0.265,0.715,1.167  c0.04,0.602-0.084,1.093-0.531,1.519c-0.258,0.245-0.428,0.573-0.564,0.908c-0.272,0.672-0.224,1.313,0.19,1.92  c0.34,0.498,0.761,0.921,1.223,1.3c0.872,0.716,1.781,1.39,2.629,2.133c1.011,0.886,1.66,1.994,1.805,3.36  c0.22,2.065-0.362,3.928-1.431,5.667c-0.017,0.027-0.039,0.053-0.062,0.075C51.567,85.789,51.544,85.794,51.511,85.808z" fill="url(&quot;#SvgjsLinearGradient6743&quot;)"></path><path xmlns="http://www.w3.org/2000/svg" d="M51.245,46.967c-0.072,1.984-0.07,3.968-0.073,5.953c0,0.033,0.001,0.065-0.002,0.098c-0.018,0.269-0.072,0.316-0.324,0.221  c-0.599-0.225-1.191-0.467-1.789-0.696c-0.163-0.063-0.249-0.164-0.237-0.342c0.002-0.032-0.001-0.065-0.001-0.098  c-0.029-2.114-0.085-4.228-0.069-6.343c0.002-0.228,0.001-0.455-0.027-0.682c-0.017-0.138,0.031-0.24,0.195-0.228  c0.67,0.05,1.342,0.058,2.008,0.148c0.306,0.041,0.316,0.061,0.318,0.374C51.248,45.904,51.245,46.435,51.245,46.967z" fill="url(&quot;#SvgjsLinearGradient6743&quot;)"></path><path xmlns="http://www.w3.org/2000/svg" d="M51.108,58.333c-0.1,1.809-0.033,3.633-0.076,5.454c-0.012,0.531-0.036,1.062-0.047,1.593  c-0.005,0.266-0.047,0.284-0.282,0.144c-0.523-0.311-1.009-0.677-1.505-1.027c-0.193-0.136-0.243-0.31-0.243-0.531  c0.002-0.955,0.019-1.911-0.013-2.864c-0.044-1.312-0.053-2.624-0.057-3.937c-0.001-0.524,0.003-0.527,0.503-0.326  c0.453,0.182,0.896,0.387,1.34,0.589c0.289,0.132,0.419,0.32,0.38,0.632C51.098,58.147,51.108,58.235,51.108,58.333z" fill="url(&quot;#SvgjsLinearGradient6743&quot;)"></path><path xmlns="http://www.w3.org/2000/svg" d="M51.375,88.787c-0.265-0.117-0.447-0.302-0.643-0.461c-1.256-1.021-2.262-2.245-2.965-3.709  c-0.465-0.968-0.736-1.988-0.85-3.058c-0.063-0.59-0.036-1.17,0.043-1.751c0.108-0.792,0.439-1.495,0.892-2.145  c0.059-0.084,0.096-0.207,0.234-0.197c0.1,0.007,0.313,0.214,0.333,0.328c0.015,0.085,0.015,0.173,0.015,0.259  c0.001,1.14,0.025,2.281-0.004,3.42c-0.036,1.417,0.352,2.724,0.938,3.988c0.499,1.078,1.14,2.072,1.85,3.022  C51.28,88.566,51.371,88.636,51.375,88.787z" fill="url(&quot;#SvgjsLinearGradient6743&quot;)"></path><path xmlns="http://www.w3.org/2000/svg" d="M50.91,72.372c0,0.575,0.006,1.151-0.002,1.726c-0.005,0.336-0.028,0.672-0.051,1.007c-0.014,0.199-0.08,0.233-0.246,0.103  c-0.47-0.368-0.929-0.75-1.394-1.123c-0.139-0.112-0.132-0.264-0.133-0.416c-0.002-0.738,0.012-1.477-0.01-2.215  c-0.024-0.792-0.056-1.583-0.052-2.375c0-0.054-0.002-0.109,0-0.163c0.009-0.27,0.051-0.295,0.278-0.144  c0.497,0.332,0.972,0.692,1.416,1.094c0.149,0.134,0.212,0.286,0.21,0.486c-0.007,0.673-0.003,1.346-0.003,2.019  C50.919,72.372,50.915,72.372,50.91,72.372z" fill="url(&quot;#SvgjsLinearGradient6743&quot;)"></path><path xmlns="http://www.w3.org/2000/svg" d="M50.729,86.306c-0.132-0.016-0.157-0.081-0.187-0.136c-0.574-1.053-1.081-2.132-1.289-3.327  c-0.017-0.096-0.035-0.193-0.04-0.29c-0.062-1.302-0.063-2.605-0.066-3.908c0-0.011-0.001-0.022,0-0.033  c0.013-0.081-0.03-0.191,0.076-0.227c0.081-0.028,0.133,0.055,0.192,0.1c0.74,0.557,1.142,1.319,1.341,2.205  c0.036,0.161,0.036,0.323,0.035,0.486c-0.004,1.271-0.009,2.542-0.012,3.813C50.779,85.423,50.707,85.853,50.729,86.306z" fill="url(&quot;#SvgjsLinearGradient6743&quot;)"></path><path xmlns="http://www.w3.org/2000/svg" d="M49.319,88.089c0.243,0.126,0.381,0.327,0.568,0.468c0.233,0.175,0.447,0.376,0.672,0.563  c0.079,0.065,0.141,0.132,0.131,0.244c-0.049,0.594-0.101,1.188-0.327,1.749c-0.073,0.18-0.138,0.402-0.362,0.418  c-0.243,0.018-0.287-0.228-0.375-0.393c-0.097-0.183-0.143-0.385-0.184-0.587c-0.158-0.768-0.188-1.546-0.162-2.327  C49.281,88.192,49.297,88.161,49.319,88.089z" fill="url(&quot;#SvgjsLinearGradient6743&quot;)"></path></g><g id="SvgjsG6738" featurekey="nameFeature-0" transform="matrix(1.5102386975400603,0,0,1.5102386975400603,87.65141903190381,-11.121353521106222)" fill="url(&quot;#SvgjsLinearGradient6746&quot;)"><path d="M23.456 14.744 c1.8287 1.8296 2.743 4.034 2.743 6.6172 c0 2.5551 -0.91432 4.7608 -2.743 6.6164 c-1.8287 1.8025 -4.0212 2.7038 -6.576 2.7038 l-9.3603 0 l0 9.3166 l-4.64 0 l0 -13.999 l14 0 c1.264 0 2.3532 -0.45628 3.2676 -1.3715 c0.91432 -0.91348 1.3715 -2.0026 1.3715 -3.2676 c0 -1.2902 -0.4572 -2.3934 -1.3715 -3.3077 s-2.0035 -1.3715 -3.2676 -1.3715 l-9.3603 0 l-4.64 -4.68 l14 0 c2.5551 0 4.7468 0.91524 6.576 2.744 z M22.843 27.354 c1.6678 -1.6915 2.4826 -3.6557 2.4818 -5.994 c0 -2.3619 -0.81384 -4.3244 -2.487 -5.9984 c-1.674 -1.674 -3.6233 -2.4878 -5.958 -2.4878 l-11.902 0 l2.9074 2.9327 l8.9958 0 c1.4983 0 2.8051 0.54724 3.8856 1.6276 c1.0796 1.0796 1.6276 2.4004 1.6276 3.9258 c0 1.4991 -0.54808 2.8069 -1.6285 3.8864 c-1.0787 1.0796 -2.3864 1.6276 -3.8856 1.6276 l-13.126 0 l0 12.251 l2.8917 0 l0 -9.3192 l10.234 0 c2.3375 0 4.2884 -0.8016 5.9636 -2.452 z M48.224000000000004 26.605 c-1.076 1.5604 -2.4475 2.6765 -4.1136 3.3488 l5.7692 10.046 l-5.3664 0 l-8.1312 -14.018 l4.1776 0.018359 c1.264 0 2.3532 -0.4572 3.2684 -1.3715 c0.91348 -0.91432 1.3715 -2.0175 1.3715 -3.3086 c0 -1.264 -0.4572 -2.3541 -1.3715 -3.2684 c-0.91524 -0.91432 -2.0044 -1.3715 -3.2684 -1.3715 l-9.5736 0 l-2.7151 -4.68 l12.288 0 c2.5551 0 4.7468 0.91524 6.5752 2.744 c1.8296 1.8296 2.7439 4.0212 2.7439 6.576 c0 1.9362 -0.5516 3.6985 -1.6539 5.2852 z M48.368 39.1262 l-5.0176 -8.738 l-0.5 -0.87068 l0.93096 -0.375 c1.4974 -0.60316 2.7501 -1.6242 3.7221 -3.0342 c1.0105 -1.4528 1.5 -3.0184 1.5 -4.7884 c0 -2.3348 -0.81384 -4.284 -2.4878 -5.958 s-3.6233 -2.4878 -5.958 -2.4878 l-10.77 0 l1.702 2.9319 l9.0701 0 c1.4974 0 2.8052 0.54808 3.8856 1.6276 c1.0804 1.0813 1.6276 2.3891 1.6276 3.8865 c0 1.5254 -0.54724 2.8462 -1.6276 3.9266 c-1.0804 1.0796 -2.3882 1.6276 -3.8864 1.6276 l-2.6565 -0.011367 l7.1136 12.263 l3.3523 0 z M53.980000000000004 12.059999999999999 l4.64 4.6008 l0 18.6 l-4.64 4.68 l0 -27.881 z M57.7448 34.900800000000004 l0 -17.877 l-2.8917 -2.8663 l0 23.66 z M84.59700000000001 11.998999999999999 l5.931 0 l-21.867 28 l-5.9712 0 l10.974 -14 l-10.974 -14 l5.9712 0 l7.9468 10.208 z M68.2348 39.12456 l20.501 -26.251 l-3.7134 0 l-7.7248 9.8716 l-0.6906 0.882 l-0.68796 -0.88376 l-7.6856 -9.87 l-3.7483 0 l9.8656 12.586 l0.42308 0.53932 l-0.42308 0.53932 l-9.8656 12.587 l3.7492 0 z M96.6 12 l9.3404 18.681 l-5.2248 -0.00085936 l-4.1156 -8.23 l-4.1024 8.23 l-4.6932 9.32 l-5.2046 0 z M97.382 22.058 l3.8742 7.7468 l3.2702 0.00085936 l-7.926 -15.852 l-12.586 25.172 l3.2518 0 l4.4512 -8.8392 l4.0996 -8.2276 l0.78148 -1.5674 z M108.28 35.3612 l2.3191 4.638 l-5.2046 0 l-2.3191 -4.638 l5.2046 0 z M104.49 36.2355 l1.445 2.8899 l3.2501 0 l-1.445 -2.8899 l-3.2501 0 z M125.28299999999999 12 l4.6732 0 l0 28.001 l-23.286 -20.923 l0 -7.0779 l18.613 16.76 l0 -16.76 z M129.082 38.0397 l0 -25.166 l-2.9249 0 l0 17.849 l-1.459 -1.3138 l-17.154 -15.446 l0 4.7247 z M154.70600000000002 12 l-14 13.999 l14 14 l-6.5753 0 l-14.07 -13.976 l14.07 -14.024 l6.5753 0 z M152.595 39.12544 l-13.125 -13.125 l0.618 -0.618 l12.507 -12.508 l-4.1041 0 l-13.192 13.148 l13.192 13.103 l4.105 0 z M172.81 12 l9.3404 18.681 l-5.2248 -0.00085936 l-4.1156 -8.23 l-4.1024 8.23 l-4.6932 9.32 l-5.2046 0 z M173.592 22.058 l3.8742 7.7468 l3.2702 0.00085936 l-7.926 -15.852 l-12.586 25.172 l3.2518 0 l4.4512 -8.8392 l4.0996 -8.2276 l0.78148 -1.5674 z M184.49 35.3612 l2.3191 4.638 l-5.2046 0 l-2.3191 -4.638 l5.2046 0 z M180.70000000000002 36.2355 l1.445 2.8899 l3.2501 0 l-1.445 -2.8899 l-3.2501 0 z" fill="url(&quot;#SvgjsLinearGradient6746&quot;)"></path></g><g id="SvgjsG6739" featurekey="sloganFeature-0" transform="matrix(0.6003029287447678,0,0,0.6003029287447678,90.97948570812608,65.50023454371097)" fill="url(&quot;#SvgjsLinearGradient6749&quot;)"><path d="M12.23 6 c0.18 0 0.3 0.12 0.3 0.3 l0 13.4 c0 0.18 -0.12 0.3 -0.3 0.3 l-1.27 0 c-0.18 0 -0.3 -0.12 -0.3 -0.3 l0 -5.99 l-7.09 0 l0 5.99 c0 0.18 -0.12 0.3 -0.3 0.3 l-1.27 0 c-0.18 0 -0.3 -0.12 -0.3 -0.3 l0 -13.4 c0 -0.18 0.12 -0.3 0.3 -0.3 l1.27 0 c0.18 0 0.3 0.12 0.3 0.3 l0 5.71 l7.09 0 l0 -5.71 c0 -0.18 0.12 -0.3 0.3 -0.3 l1.27 0 z M25.6605 18.3 c0.18 0 0.3 0.12 0.3 0.3 l0 1.1 c0 0.18 -0.12 0.3 -0.3 0.3 l-8.55 0 c-0.18 0 -0.3 -0.12 -0.3 -0.3 l0 -13.4 c0 -0.18 0.12 -0.3 0.3 -0.3 l8.53 0 c0.18 0 0.3 0.12 0.3 0.3 l0 1.1 c0 0.18 -0.12 0.3 -0.3 0.3 l-6.96 0 l0 4.15 l6.43 0 c0.18 0 0.3 0.12 0.3 0.3 l0 1.1 c0 0.18 -0.12 0.3 -0.3 0.3 l-6.43 0 l0 4.75 l6.98 0 z M41.111000000000004 19.66 c0.08 0.2 -0.02 0.34 -0.24 0.34 l-1.29 0 c-0.16 0 -0.27 -0.06 -0.34 -0.24 l-0.99 -2.69 l-6.42 0 l-0.99 2.69 c-0.07 0.18 -0.18 0.24 -0.34 0.24 l-1.29 0 c-0.22 0 -0.32 -0.14 -0.24 -0.34 l5.08 -13.42 c0.06 -0.16 0.2 -0.24 0.36 -0.24 l1.26 0 c0.16 0 0.3 0.08 0.36 0.24 z M32.441 15.42 l5.2 0 l-2.6 -7.08 z M53.221500000000006 18.3 c0.18 0 0.3 0.12 0.3 0.3 l0 1.1 c0 0.18 -0.12 0.3 -0.3 0.3 l-8.45 0 c-0.18 0 -0.3 -0.12 -0.3 -0.3 l0 -13.4 c0 -0.18 0.12 -0.3 0.3 -0.3 l1.27 0 c0.18 0 0.3 0.12 0.3 0.3 l0 12 l6.88 0 z M66.502 7.699999999999999 l-3.74 0 l0 10.6 l3.74 0 c0.18 0 0.3 0.12 0.3 0.3 l0 1.1 c0 0.18 -0.12 0.3 -0.3 0.3 l-9.35 0 c-0.18 0 -0.3 -0.12 -0.3 -0.3 l0 -1.1 c0 -0.18 0.12 -0.3 0.3 -0.3 l3.74 0 l0 -10.6 l-3.74 0 c-0.18 0 -0.3 -0.12 -0.3 -0.3 l0 -1.1 c0 -0.18 0.12 -0.3 0.3 -0.3 l9.35 0 c0.18 0 0.3 0.12 0.3 0.3 l0 1.1 c0 0.18 -0.12 0.3 -0.3 0.3 z M81.0925 6 c0.18 0 0.3 0.12 0.3 0.3 l0 13.4 c0 0.16 -0.1 0.28 -0.25 0.3 l-1.64 0 c-0.16 0 -0.28 -0.06 -0.36 -0.2 l-6.44 -11.04 l0 10.94 c0 0.18 -0.12 0.3 -0.3 0.3 l-1.27 0 c-0.18 0 -0.3 -0.12 -0.3 -0.3 l0 -13.4 c0 -0.17 0.1 -0.28 0.26 -0.3 l1.63 0 c0.16 0 0.28 0.06 0.36 0.2 l6.44 11.03 l0 -10.93 c0 -0.18 0.12 -0.3 0.3 -0.3 l1.27 0 z M98.483 12.620000000000001 c0.18 0 0.3 0.12 0.3 0.3 l0 0.79 c0 3.69 -2.42 6.55 -6.4 6.55 c-4.03 0 -7.11 -3.22 -7.11 -7.23 c0 -4 3.1 -7.19 7.08 -7.19 c1.92 0 3.49 0.73 4.77 1.91 c0.14 0.13 0.15 0.28 0.01 0.42 l-0.8 0.85 c-0.14 0.14 -0.28 0.12 -0.42 0 c-0.99 -0.84 -2.11 -1.36 -3.56 -1.36 c-2.87 0 -5.17 2.31 -5.17 5.37 c0 3.07 2.25 5.4 5.2 5.4 c2.68 0 4.52 -1.73 4.6 -4.14 l-4.41 0 c-0.18 0 -0.3 -0.12 -0.3 -0.3 l0 -1.07 c0 -0.18 0.12 -0.3 0.3 -0.3 l5.91 0 z M121.874 6 c0.18 0 0.3 0.12 0.3 0.3 l0 13.4 c0 0.18 -0.12 0.3 -0.3 0.3 l-1.27 0 c-0.18 0 -0.3 -0.12 -0.3 -0.3 l0 -5.99 l-7.09 0 l0 5.99 c0 0.18 -0.12 0.3 -0.3 0.3 l-1.27 0 c-0.18 0 -0.3 -0.12 -0.3 -0.3 l0 -13.4 c0 -0.18 0.12 -0.3 0.3 -0.3 l1.27 0 c0.18 0 0.3 0.12 0.3 0.3 l0 5.71 l7.09 0 l0 -5.71 c0 -0.18 0.12 -0.3 0.3 -0.3 l1.27 0 z M135.3045 18.3 c0.18 0 0.3 0.12 0.3 0.3 l0 1.1 c0 0.18 -0.12 0.3 -0.3 0.3 l-8.55 0 c-0.18 0 -0.3 -0.12 -0.3 -0.3 l0 -13.4 c0 -0.18 0.12 -0.3 0.3 -0.3 l8.53 0 c0.18 0 0.3 0.12 0.3 0.3 l0 1.1 c0 0.18 -0.12 0.3 -0.3 0.3 l-6.96 0 l0 4.15 l6.43 0 c0.18 0 0.3 0.12 0.3 0.3 l0 1.1 c0 0.18 -0.12 0.3 -0.3 0.3 l-6.43 0 l0 4.75 l6.98 0 z M150.75499999999997 19.66 c0.08 0.2 -0.02 0.34 -0.24 0.34 l-1.29 0 c-0.16 0 -0.27 -0.06 -0.34 -0.24 l-0.99 -2.69 l-6.42 0 l-0.99 2.69 c-0.07 0.18 -0.18 0.24 -0.34 0.24 l-1.29 0 c-0.22 0 -0.32 -0.14 -0.24 -0.34 l5.08 -13.42 c0.06 -0.16 0.2 -0.24 0.36 -0.24 l1.26 0 c0.16 0 0.3 0.08 0.36 0.24 z M142.08499999999998 15.42 l5.2 0 l-2.6 -7.08 z M161.45549999999997 14.57 l2.68 5.08 c0.11 0.21 0.01 0.35 -0.22 0.35 l-1.32 0 c-0.16 0 -0.27 -0.07 -0.35 -0.22 l-2.58 -4.99 l-0.29 0 l-3.39 0 l0 4.91 c0 0.18 -0.12 0.3 -0.3 0.3 l-1.27 0 c-0.18 0 -0.3 -0.12 -0.3 -0.3 l0 -13.4 c0 -0.18 0.12 -0.3 0.3 -0.3 l4.96 0 c3.69 0 5.04 1.56 5.04 4.39 c0 2.22 -0.83 3.66 -2.96 4.18 z M155.98549999999997 7.699999999999999 l0 5.39 l3.52 0 c1.86 0 3.1 -0.5 3.1 -2.7 c0 -2.19 -1.24 -2.69 -3.1 -2.69 l-3.52 0 z M177.796 6 c0.18 0 0.3 0.12 0.3 0.3 l0 1.1 c0 0.18 -0.12 0.3 -0.3 0.3 l-4.19 0 l0 12 c0 0.18 -0.12 0.3 -0.3 0.3 l-1.27 0 c-0.18 0 -0.3 -0.12 -0.3 -0.3 l0 -12 l-4.19 0 c-0.18 0 -0.3 -0.12 -0.3 -0.3 l0 -1.1 c0 -0.18 0.12 -0.3 0.3 -0.3 l10.25 0 z M186.0265 12.01 c2.72 0.56 5.21 1.37 5.21 4.33 c0 2.4 -1.61 3.96 -5.15 3.96 c-3.03 0 -4.85 -1.12 -5.06 -3.42 c-0.02 -0.2 0.1 -0.36 0.28 -0.36 l1.22 0 c0.18 0 0.28 0.14 0.3 0.3 c0.17 1.1 1.33 1.78 3.26 1.78 c2.13 0 3.31 -0.72 3.31 -2.24 c0 -1.77 -1.23 -2.15 -3.37 -2.65 c-2.54 -0.58 -4.68 -1.45 -4.68 -4.16 c0 -2.26 1.53 -3.72 4.62 -3.72 c2.86 0 4.62 1.09 4.85 3.35 c0.02 0.2 -0.1 0.3 -0.28 0.3 l-1.13 0 c-0.18 0 -0.28 -0.08 -0.3 -0.24 c-0.15 -1.02 -1.26 -1.74 -3.13 -1.74 c-1.72 0 -2.83 0.7 -2.83 2.05 c0 1.36 0.91 2.05 2.88 2.46 z M198.747 18.45 c0.18 0 0.3 0.12 0.3 0.3 l0 0.49 c0 1.69 -0.34 3.53 -0.73 4.57 c-0.06 0.16 -0.19 0.23 -0.35 0.23 l-0.66 0 c-0.2 0 -0.3 -0.12 -0.26 -0.33 c0.19 -1.03 0.29 -2.73 0.27 -3.71 l-2.55 0 c-0.18 0 -0.3 -0.12 -0.3 -0.3 l0 -0.95 c0 -0.18 0.12 -0.3 0.3 -0.3 l3.98 0 z M215.958 12.01 c2.72 0.56 5.21 1.37 5.21 4.33 c0 2.4 -1.61 3.96 -5.15 3.96 c-3.03 0 -4.85 -1.12 -5.06 -3.42 c-0.02 -0.2 0.1 -0.36 0.28 -0.36 l1.22 0 c0.18 0 0.28 0.14 0.3 0.3 c0.17 1.1 1.33 1.78 3.26 1.78 c2.13 0 3.31 -0.72 3.31 -2.24 c0 -1.77 -1.23 -2.15 -3.37 -2.65 c-2.54 -0.58 -4.68 -1.45 -4.68 -4.16 c0 -2.26 1.53 -3.72 4.62 -3.72 c2.86 0 4.62 1.09 4.85 3.35 c0.02 0.2 -0.1 0.3 -0.28 0.3 l-1.13 0 c-0.18 0 -0.28 -0.08 -0.3 -0.24 c-0.15 -1.02 -1.26 -1.74 -3.13 -1.74 c-1.72 0 -2.83 0.7 -2.83 2.05 c0 1.36 0.91 2.05 2.88 2.46 z M236.0685 19.66 c0.08 0.2 -0.02 0.34 -0.24 0.34 l-1.29 0 c-0.16 0 -0.27 -0.06 -0.34 -0.24 l-0.99 -2.69 l-6.42 0 l-0.99 2.69 c-0.07 0.18 -0.18 0.24 -0.34 0.24 l-1.29 0 c-0.22 0 -0.32 -0.14 -0.24 -0.34 l5.08 -13.42 c0.06 -0.16 0.2 -0.24 0.36 -0.24 l1.26 0 c0.16 0 0.3 0.08 0.36 0.24 z M227.3985 15.42 l5.2 0 l-2.6 -7.08 z M248.77900000000002 6.24 c0.07 -0.18 0.18 -0.24 0.34 -0.24 l1.29 0 c0.22 0 0.32 0.14 0.24 0.34 l-5.08 13.42 c-0.06 0.16 -0.2 0.24 -0.36 0.24 l-1.26 0 c-0.16 0 -0.3 -0.08 -0.36 -0.24 l-5.08 -13.42 c-0.08 -0.2 0.02 -0.34 0.24 -0.34 l1.29 0 c0.16 0 0.27 0.06 0.34 0.24 l4.2 11.42 z M263.40950000000004 7.699999999999999 l-3.74 0 l0 10.6 l3.74 0 c0.18 0 0.3 0.12 0.3 0.3 l0 1.1 c0 0.18 -0.12 0.3 -0.3 0.3 l-9.35 0 c-0.18 0 -0.3 -0.12 -0.3 -0.3 l0 -1.1 c0 -0.18 0.12 -0.3 0.3 -0.3 l3.74 0 l0 -10.6 l-3.74 0 c-0.18 0 -0.3 -0.12 -0.3 -0.3 l0 -1.1 c0 -0.18 0.12 -0.3 0.3 -0.3 l9.35 0 c0.18 0 0.3 0.12 0.3 0.3 l0 1.1 c0 0.18 -0.12 0.3 -0.3 0.3 z M278 6 c0.18 0 0.3 0.12 0.3 0.3 l0 13.4 c0 0.16 -0.1 0.28 -0.25 0.3 l-1.64 0 c-0.16 0 -0.28 -0.06 -0.36 -0.2 l-6.44 -11.04 l0 10.94 c0 0.18 -0.12 0.3 -0.3 0.3 l-1.27 0 c-0.18 0 -0.3 -0.12 -0.3 -0.3 l0 -13.4 c0 -0.17 0.1 -0.28 0.26 -0.3 l1.63 0 c0.16 0 0.28 0.06 0.36 0.2 l6.44 11.03 l0 -10.93 c0 -0.18 0.12 -0.3 0.3 -0.3 l1.27 0 z M295.39050000000003 12.620000000000001 c0.18 0 0.3 0.12 0.3 0.3 l0 0.79 c0 3.69 -2.42 6.55 -6.4 6.55 c-4.03 0 -7.11 -3.22 -7.11 -7.23 c0 -4 3.1 -7.19 7.08 -7.19 c1.92 0 3.49 0.73 4.77 1.91 c0.14 0.13 0.15 0.28 0.01 0.42 l-0.8 0.85 c-0.14 0.14 -0.28 0.12 -0.42 0 c-0.99 -0.84 -2.11 -1.36 -3.56 -1.36 c-2.87 0 -5.17 2.31 -5.17 5.37 c0 3.07 2.25 5.4 5.2 5.4 c2.68 0 4.52 -1.73 4.6 -4.14 l-4.41 0 c-0.18 0 -0.3 -0.12 -0.3 -0.3 l0 -1.07 c0 -0.18 0.12 -0.3 0.3 -0.3 l5.91 0 z M317.0015 18.3 c0.18 0 0.3 0.12 0.3 0.3 l0 1.1 c0 0.18 -0.12 0.3 -0.3 0.3 l-8.45 0 c-0.18 0 -0.3 -0.12 -0.3 -0.3 l0 -13.4 c0 -0.18 0.12 -0.3 0.3 -0.3 l1.27 0 c0.18 0 0.3 0.12 0.3 0.3 l0 12 l6.88 0 z M330.28200000000004 7.699999999999999 l-3.74 0 l0 10.6 l3.74 0 c0.18 0 0.3 0.12 0.3 0.3 l0 1.1 c0 0.18 -0.12 0.3 -0.3 0.3 l-9.35 0 c-0.18 0 -0.3 -0.12 -0.3 -0.3 l0 -1.1 c0 -0.18 0.12 -0.3 0.3 -0.3 l3.74 0 l0 -10.6 l-3.74 0 c-0.18 0 -0.3 -0.12 -0.3 -0.3 l0 -1.1 c0 -0.18 0.12 -0.3 0.3 -0.3 l9.35 0 c0.18 0 0.3 0.12 0.3 0.3 l0 1.1 c0 0.18 -0.12 0.3 -0.3 0.3 z M343.96250000000003 6.24 c0.07 -0.18 0.18 -0.24 0.34 -0.24 l1.29 0 c0.22 0 0.32 0.14 0.24 0.34 l-5.08 13.42 c-0.06 0.16 -0.2 0.24 -0.36 0.24 l-1.26 0 c-0.16 0 -0.3 -0.08 -0.36 -0.24 l-5.08 -13.42 c-0.08 -0.2 0.02 -0.34 0.24 -0.34 l1.29 0 c0.16 0 0.27 0.06 0.34 0.24 l4.2 11.42 z M358.04300000000006 18.3 c0.18 0 0.3 0.12 0.3 0.3 l0 1.1 c0 0.18 -0.12 0.3 -0.3 0.3 l-8.55 0 c-0.18 0 -0.3 -0.12 -0.3 -0.3 l0 -13.4 c0 -0.18 0.12 -0.3 0.3 -0.3 l8.53 0 c0.18 0 0.3 0.12 0.3 0.3 l0 1.1 c0 0.18 -0.12 0.3 -0.3 0.3 l-6.96 0 l0 4.15 l6.43 0 c0.18 0 0.3 0.12 0.3 0.3 l0 1.1 c0 0.18 -0.12 0.3 -0.3 0.3 l-6.43 0 l0 4.75 l6.98 0 z M366.6735000000001 12.01 c2.72 0.56 5.21 1.37 5.21 4.33 c0 2.4 -1.61 3.96 -5.15 3.96 c-3.03 0 -4.85 -1.12 -5.06 -3.42 c-0.02 -0.2 0.1 -0.36 0.28 -0.36 l1.22 0 c0.18 0 0.28 0.14 0.3 0.3 c0.17 1.1 1.33 1.78 3.26 1.78 c2.13 0 3.31 -0.72 3.31 -2.24 c0 -1.77 -1.23 -2.15 -3.37 -2.65 c-2.54 -0.58 -4.68 -1.45 -4.68 -4.16 c0 -2.26 1.53 -3.72 4.62 -3.72 c2.86 0 4.62 1.09 4.85 3.35 c0.02 0.2 -0.1 0.3 -0.28 0.3 l-1.13 0 c-0.18 0 -0.28 -0.08 -0.3 -0.24 c-0.15 -1.02 -1.26 -1.74 -3.13 -1.74 c-1.72 0 -2.83 0.7 -2.83 2.05 c0 1.36 0.91 2.05 2.88 2.46 z" fill="url(&quot;#SvgjsLinearGradient6749&quot;)"></path></g></svg>